<svg id="Layer_1" data-name="Layer 1" xmlns="http://www.w3.org/2000/svg" viewBox="0 0 44.78 37.15"><defs><style>.cls-1{fill:#fff;}</style></defs><title>CE-Logo-</title><path class="cls-1" d="M41.33.27H3.46A3.36,3.36,0,0,0,.1,3.63V7.46H2.23V3.56A1.54,1.54,0,0,1,3.78,2H41a1.54,1.54,0,0,1,1.54,1.54v3.9h2.13V3.65A3.36,3.36,0,0,0,41.33.27Z"/><path class="cls-1" d="M42.55,33.59A1.54,1.54,0,0,1,41,35.13H3.78a1.54,1.54,0,0,1-1.55-1.54v-3.9H.1v3.83a3.36,3.36,0,0,0,3.36,3.36H41.32a3.35,3.35,0,0,0,3.36-3.36V29.69H42.55Z"/><path class="cls-1" d="M13.68,9.41a6,6,0,0,1,1.78.25,3.37,3.37,0,0,1,1.18.63,3.18,3.18,0,0,1,.69.89,4.14,4.14,0,0,1,.35.88,6.5,6.5,0,0,1,.12.87c0,.38.25.84,1.09.84a1.11,1.11,0,0,0,.84-.27,1.48,1.48,0,0,0,.26-1,4.7,4.7,0,0,0-1.71-3.62,6.82,6.82,0,0,0-4.6-1.49A6.73,6.73,0,0,0,9.06,9a6.3,6.3,0,0,0-1.8,4.92v9.36a6.4,6.4,0,0,0,1.77,5,6.6,6.6,0,0,0,4.56,1.59,6.82,6.82,0,0,0,4.65-1.52A4.72,4.72,0,0,0,20,24.57a1.57,1.57,0,0,0-.25-1,1.07,1.07,0,0,0-.85-.29H18.8a1,1,0,0,0-1,.88,8.42,8.42,0,0,1-.22,1.2,4.41,4.41,0,0,1-.51,1.1,2.3,2.3,0,0,1-1.18,1,5.39,5.39,0,0,1-2.07.34c-2.93,0-4.36-1.47-4.36-4.5V13.88C9.45,10.87,10.83,9.41,13.68,9.41Z"/><path class="cls-1" d="M36.67,9.41a.75.75,0,0,0,.64-.33,1.35,1.35,0,0,0,.21-.73c0-.81-.46-1-.85-1H25.94a1.16,1.16,0,0,0-.7.22.74.74,0,0,0-.31.64V28.7a.76.76,0,0,0,.32.65,1.07,1.07,0,0,0,.69.24H36.67c.39,0,.85-.19.85-1a1.15,1.15,0,0,0-.23-.72.74.74,0,0,0-.62-.31H27.14V19.4h4.62c.56,0,.85-.31.85-.91a1.12,1.12,0,0,0-.21-.71.76.76,0,0,0-.64-.29H27.14V9.41Z"/></svg>